<svg xmlns="http://www.w3.org/2000/svg" id="Warstwa_1" viewBox="0 0 75 75" width="75" height="75"><style>.st0{fill:#ffc331}</style><g id="schm"><g id="schm_1_"><path class="st0" d="M38.7 23.7c.6.6 1.7.6 2.3 0 .6-.6.6-1.7 0-2.3l-2.5-2.6c-.6-.6-1.7-.6-2.3 0s-.6 1.7 0 2.3l2.5 2.6zM49.4 20.2c.9 0 1.6-.7 1.6-1.6V15c0-.9-.7-1.6-1.6-1.6s-1.6.7-1.6 1.6v3.6c0 .8.7 1.6 1.6 1.6zM60.2 23.7l2.5-2.6c.6-.6.6-1.7 0-2.3-.6-.6-1.7-.6-2.3 0l-2.5 2.6c-.6.6-.6 1.7 0 2.3.6.6 1.6.6 2.3 0zM49.4 21.6c-3.3 0-6.3 1.5-8.2 4 1 .4 2 .9 3 1.7 1.3-1.4 3.2-2.3 5.2-2.3 4 0 7.2 3.2 7.2 7.2 0 1.7-.6 3.2-1.5 4.5.8 1.2 1.2 2.4 1.4 3.4 2.1-1.9 3.5-4.8 3.5-7.9 0-5.8-4.8-10.6-10.6-10.6zM60.1 40.7c-.6-.6-1.7-.6-2.3 0s-.6 1.7 0 2.3l2.5 2.6c.6.6 1.7.6 2.3 0 .6-.6.6-1.7 0-2.3l-2.5-2.6zM66.6 30.6H63c-.9 0-1.6.7-1.6 1.6 0 .9.7 1.6 1.6 1.6h3.6c.9 0 1.6-.7 1.6-1.6.1-.9-.7-1.6-1.6-1.6z"/><path d="M47.6 33.2c-2-8.3-9.6-8.7-11.8-8.1-2.3-2.4-6.2-4.1-10.1-4.1-7.8 0-14.1 6.1-14.7 13.8-2.5 1.5-4.3 4.3-4.3 7.5 0 4.8 3.8 8.6 8.5 8.6H48c4.8 0 8.7-4 8.7-8.9 0 .1.1-8.8-9.1-8.8zm.4 14.4H16c-3.2 0-5.5-2.3-5.5-5.3 0-2.5 1.5-4.6 3.9-5.4.3-11.6 10.4-12.2 11.5-12.2 3.3 0 6.6 1.7 8.8 4.1 4.3-1.4 10.2 1.9 9.5 8.4 1.7-.7 3.4-.6 3.8-.6 2.4 0 5.3 2.1 5.3 5.6 0 3-2.4 5.4-5.3 5.4z" fill="#fff"/></g></g></svg>